<?xml version="1.0" standalone="no"?>
<!-- Creator: fig2dev Version 3.2.6a -->
<!-- CreationDate: 2020-07-27 23:49:32 -->
<!-- Magnification: 1.43 -->
<svg	xmlns="http://www.w3.org/2000/svg"
	xmlns:xlink="http://www.w3.org/1999/xlink"
	width="850pt" height="425pt"
	viewBox="64 168 9914 4959">
<g fill="none">
<!-- Line -->
<polyline points=" 5670,1350 5580,1350 5580,1395 5490,1395"
	stroke="#000000" stroke-width="8px"/>
<!-- Line -->
<polyline points=" 5670,1575 5490,1575"
	stroke="#000000" stroke-width="8px"/>
<!-- Line -->
<polyline points=" 6345,4140 6120,4140"
	stroke="#000000" stroke-width="8px"/>
<!-- Line -->
<polyline points=" 4995,4050 4995,4140 5175,4140"
	stroke="#000000" stroke-width="8px"/>
<!-- Line -->
<polyline points=" 900,675 5715,675"
	stroke="#000000" stroke-width="8px"/>
<!-- Line -->
<polyline points=" 2250,225 1755,225 1575,225 1575,675"
	stroke="#000000" stroke-width="8px"/>
<!-- Line -->
<polyline points=" 4950,1485 4725,1485 4725,1350 2835,1350 2835,2565 2475,2565"
	stroke="#000000" stroke-width="8px"/>
<!-- Line -->
<polyline points=" 900,1800 5715,1800"
	stroke="#000000" stroke-width="8px"/>
<!-- Line -->
<rect x="8370" y="1350" width="1125" height="1800"
	stroke="#000000" stroke-width="15px"/>
<!-- Line -->
<polyline points=" 8910,900 8910,1350"
	stroke="#000000" stroke-width="8px"/>
<!-- Line -->
<polyline points=" 8910,3150 8910,3600"
	stroke="#000000" stroke-width="8px"/>
<!-- Line -->
<polyline points=" 6120,675 9720,675 9720,3510 8910,3510"
	stroke="#000000" stroke-width="8px"/>
<!-- Line -->
<polyline points=" 7920,1800 8370,1800"
	stroke="#000000" stroke-width="8px"/>
<!-- Line -->
<polyline points=" 7695,1260 7695,1125"
	stroke="#000000" stroke-width="8px"/>
<!-- Line -->
<polyline points=" 7695,1710 7695,1800 7920,1800"
	stroke="#000000" stroke-width="8px"/>
<!-- Line -->
<polyline points=" 7470,2700 7020,2700 7020,1575 6075,1575"
	stroke="#000000" stroke-width="8px"/>
<!-- Line -->
<polyline points=" 6120,1125 8910,1125"
	stroke="#000000" stroke-width="8px"/>
<!-- Line -->
<polyline points=" 8055,1260 8055,1125"
	stroke="#000000" stroke-width="8px"/>
<!-- Line -->
<polyline points=" 8055,1620 8055,1800"
	stroke="#000000" stroke-width="8px"/>
<!-- Line -->
<polyline points=" 7335,1800 7245,1800 7245,900 6120,900"
	stroke="#000000" stroke-width="8px"/>
<!-- Line -->
<polyline points=" 7650,1800 7695,1800"
	stroke="#000000" stroke-width="8px"/>
<!-- Line -->
<rect x="6795" y="450" width="3150" height="3825"
	stroke="#000000" stroke-width="30px"/>
<!-- Line -->
<polyline points=" 900,900 5715,900"
	stroke="#000000" stroke-width="8px"/>
<!-- Line -->
<polyline points=" 900,1125 5715,1125"
	stroke="#000000" stroke-width="8px"/>
<!-- Line -->
<polyline points=" 900,1350 1575,1350 1575,2565"
	stroke="#000000" stroke-width="8px"/>
<!-- Line -->
<polyline points=" 2025,2565 1575,2565"
	stroke="#000000" stroke-width="8px"/>
<!-- Line -->
<polyline points=" 2835,495 2835,1125"
	stroke="#000000" stroke-width="8px"/>
<!-- Line -->
<polyline points=" 2655,2925 1575,2925 1575,2565"
	stroke="#000000" stroke-width="8px"/>
<!-- Line -->
<polyline points=" 1575,3375 1575,2925"
	stroke="#000000" stroke-width="8px"/>
<!-- Line -->
<polyline points=" 5625,2565 5625,2115 3690,2115 3690,1575 900,1575"
	stroke="#000000" stroke-width="8px"/>
<!-- Line -->
<polyline points=" 4500,3375 4725,3375 4725,2925"
	stroke="#000000" stroke-width="8px"/>
<!-- Line -->
<polyline points=" 3465,2925 4725,2925 4725,2565"
	stroke="#000000" stroke-width="8px"/>
<!-- Line -->
<polyline points=" 2970,3375 3195,3375"
	stroke="#000000" stroke-width="8px"/>
<!-- Line -->
<polyline points=" 4230,2565 3780,2565"
	stroke="#000000" stroke-width="8px"/>
<!-- Line -->
<polyline points=" 3465,2925 3015,2925"
	stroke="#000000" stroke-width="8px"/>
<!-- Line -->
<polyline points=" 3150,3375 3150,3825"
	stroke="#000000" stroke-width="8px"/>
<!-- Text -->
<text xml:space="preserve" x="450" y="3915" fill="#000000" font-family="Times" font-style="normal" font-weight="normal" font-size="144" text-anchor="middle">100nF</text>
<!-- Text -->
<text xml:space="preserve" x="495" y="720" fill="#000000" font-family="Times" font-style="normal" font-weight="normal" font-size="144" text-anchor="end">GND</text>
<!-- Text -->
<text xml:space="preserve" x="495" y="990" fill="#000000" font-family="Times" font-style="normal" font-weight="normal" font-size="144" text-anchor="end">CTS</text>
<!-- Text -->
<text xml:space="preserve" x="495" y="1215" fill="#000000" font-family="Times" font-style="normal" font-weight="normal" font-size="144" text-anchor="end">VCC</text>
<!-- Text -->
<text xml:space="preserve" x="495" y="1440" fill="#000000" font-family="Times" font-style="normal" font-weight="normal" font-size="144" text-anchor="end">TXD</text>
<!-- Text -->
<text xml:space="preserve" x="495" y="1665" fill="#000000" font-family="Times" font-style="normal" font-weight="normal" font-size="144" text-anchor="end">RXD</text>
<!-- Text -->
<text xml:space="preserve" x="495" y="1890" fill="#000000" font-family="Times" font-style="normal" font-weight="normal" font-size="144" text-anchor="end">DTR</text>
<!-- Text -->
<text xml:space="preserve" x="135" y="2205" fill="#000000" font-family="Times" font-style="normal" font-weight="normal" font-size="192" text-anchor="start">CH340</text>
<!-- Text -->
<text xml:space="preserve" x="2250" y="2430" fill="#000000" font-family="Times" font-style="normal" font-weight="normal" font-size="144" text-anchor="middle">1k</text>
<!-- Text -->
<text xml:space="preserve" x="7470" y="2070" fill="#000000" font-family="Times" font-style="normal" font-weight="normal" font-size="120" text-anchor="middle">100nF</text>
<!-- Text -->
<text xml:space="preserve" x="8460" y="1845" fill="#000000" font-family="Times" font-style="normal" font-weight="normal" font-size="120" text-anchor="start">Reset</text>
<!-- Text -->
<text xml:space="preserve" x="8415" y="2745" fill="#000000" font-family="Times" font-style="normal" font-weight="normal" font-size="120" text-anchor="start">Rx/Tx</text>
<!-- Text -->
<text xml:space="preserve" x="8415" y="2940" fill="#000000" font-family="Times" font-style="normal" font-weight="normal" font-size="120" text-anchor="start">open Collector</text>
<!-- Text -->
<text xml:space="preserve" x="8910" y="2340" fill="#000000" font-family="Times" font-style="normal" font-weight="normal" font-size="240" text-anchor="middle">AVR</text>
<!-- Text -->
<g transform="translate(7875,1620) rotate(-90)" >
<text xml:space="preserve" x="0" y="0" fill="#000000" font-family="Times" font-style="normal" font-weight="normal" font-size="120" text-anchor="start">10k</text>
</g><!-- Text -->
<text xml:space="preserve" x="7020" y="3510" fill="#000000" font-family="Times" font-style="normal" font-weight="normal" font-size="180" text-anchor="start">Spezieller</text>
<!-- Text -->
<text xml:space="preserve" x="7020" y="3810" fill="#000000" font-family="Times" font-style="normal" font-weight="normal" font-size="180" text-anchor="start">Bootloader</text>
<!-- Text -->
<text xml:space="preserve" x="4455" y="2475" fill="#000000" font-family="Times" font-style="normal" font-weight="normal" font-size="144" text-anchor="middle">2.2k</text>
<!-- Text -->
<text xml:space="preserve" x="2790" y="3285" fill="#000000" font-family="Times" font-style="normal" font-weight="normal" font-size="144" text-anchor="middle">2.2k</text>
<!-- Text -->
<text xml:space="preserve" x="2790" y="2835" fill="#000000" font-family="Times" font-style="normal" font-weight="normal" font-size="144" text-anchor="middle">BAT42</text>
<!-- Text -->
<text xml:space="preserve" x="4365" y="3285" fill="#000000" font-family="Times" font-style="normal" font-weight="normal" font-size="144" text-anchor="middle">BAT42</text>
<!-- Text -->
<text xml:space="preserve" x="135" y="5040" fill="#000000" font-family="Times" font-style="normal" font-weight="normal" font-size="180" text-anchor="start">Schaltung zum Sperren des localen Echos von TXD nach RXD.</text>
<!-- Text -->
<text xml:space="preserve" x="135" y="2520" fill="#000000" font-family="Times" font-style="normal" font-weight="normal" font-size="192" text-anchor="start">oder FTDI</text>
<!-- Text -->
<text xml:space="preserve" x="7020" y="4110" fill="#000000" font-family="Times" font-style="normal" font-weight="normal" font-size="180" text-anchor="start">erforderlich!</text>
<!-- Text -->
<text xml:space="preserve" x="3195" y="3915" fill="#000000" font-family="Times" font-style="normal" font-weight="normal" font-size="144" text-anchor="start">470pF</text>
<!-- Text -->
<text xml:space="preserve" x="5400" y="4320" fill="#000000" font-family="Helvetica" font-style="normal" font-weight="normal" font-size="96" text-anchor="start">74HC14</text>
<!-- Text -->
<text xml:space="preserve" x="3645" y="3600" fill="#000000" font-family="Helvetica" font-style="normal" font-weight="normal" font-size="96" text-anchor="start">74HC14</text>
<!-- Text -->
<text xml:space="preserve" x="2070" y="3600" fill="#000000" font-family="Helvetica" font-style="normal" font-weight="normal" font-size="96" text-anchor="start">74HC14</text>
<!-- Text -->
<text xml:space="preserve" x="5040" y="2835" fill="#000000" font-family="Helvetica" font-style="normal" font-weight="normal" font-size="96" text-anchor="start">74HC14</text>
<!-- Text -->
<text xml:space="preserve" x="3285" y="2790" fill="#000000" font-family="Helvetica" font-style="normal" font-weight="normal" font-size="96" text-anchor="start">74HC14</text>
<!-- Line -->
<polyline points=" 6120,4140 5895,4140"
	stroke="#000000" stroke-width="8px"/>
<!-- Text -->
<text xml:space="preserve" x="6016" y="4086" fill="#000000" font-family="Helvetica" font-style="normal" font-weight="normal" font-size="72" text-anchor="start">7</text>
<!-- Text -->
<text xml:space="preserve" x="5678" y="4146" fill="#000000" font-family="Helvetica" font-style="normal" font-weight="normal" font-size="72" text-anchor="start">GND</text>
<!-- Line -->
<polyline points=" 5175,4140 5355,4140"
	stroke="#000000" stroke-width="8px"/>
<!-- Text -->
<text xml:space="preserve" x="5191" y="4101" fill="#000000" font-family="Helvetica" font-style="normal" font-weight="normal" font-size="72" text-anchor="start">14</text>
<!-- Text -->
<text xml:space="preserve" x="5395" y="4146" fill="#000000" font-family="Helvetica" font-style="normal" font-weight="normal" font-size="72" text-anchor="start">VCC</text>
<!-- Line -->
<polyline points=" 585,630 630,675 585,720"
	stroke="#000000" stroke-width="8px"/>
<!-- Line -->
<polyline points=" 630,675 900,675"
	stroke="#000000" stroke-width="8px"/>
<!-- Line -->
<polyline points=" 585,855 630,900 585,945"
	stroke="#000000" stroke-width="8px"/>
<!-- Line -->
<polyline points=" 630,900 900,900"
	stroke="#000000" stroke-width="8px"/>
<!-- Line -->
<polyline points=" 585,1080 630,1125 585,1170"
	stroke="#000000" stroke-width="8px"/>
<!-- Line -->
<polyline points=" 630,1125 900,1125"
	stroke="#000000" stroke-width="8px"/>
<!-- Line -->
<polyline points=" 585,1305 630,1350 585,1395"
	stroke="#000000" stroke-width="8px"/>
<!-- Line -->
<polyline points=" 630,1350 900,1350"
	stroke="#000000" stroke-width="8px"/>
<!-- Line -->
<polyline points=" 585,1530 630,1575 585,1620"
	stroke="#000000" stroke-width="8px"/>
<!-- Line -->
<polyline points=" 630,1575 900,1575"
	stroke="#000000" stroke-width="8px"/>
<!-- Line -->
<polyline points=" 585,1755 630,1800 585,1845"
	stroke="#000000" stroke-width="8px"/>
<!-- Line -->
<polyline points=" 630,1800 900,1800"
	stroke="#000000" stroke-width="8px"/>
<!-- Circle -->
<circle cx="1575" cy="675" r="20" fill="#000000"
	stroke="#000000" stroke-width="8px"/>
<!-- Line -->
<polyline points=" 2160,495 2340,495"
	stroke="#000000" stroke-width="30px" stroke-linecap="round"/>
<!-- Line -->
<polyline points=" 2250,225 2250,495"
	stroke="#000000" stroke-width="8px"/>
<!-- Circle -->
<circle cx="5355" cy="1395" r="38"
	stroke="#000000" stroke-width="8px"/>
<!-- Circle -->
<circle cx="5355" cy="1575" r="38"
	stroke="#000000" stroke-width="8px"/>
<!-- Circle -->
<circle cx="5085" cy="1485" r="38"
	stroke="#000000" stroke-width="8px"/>
<!-- Line -->
<polyline points=" 5490,1395 5400,1395"
	stroke="#000000" stroke-width="8px"/>
<!-- Line -->
<polyline points=" 5490,1575 5400,1575"
	stroke="#000000" stroke-width="8px"/>
<!-- Line -->
<polyline points=" 5040,1485 4950,1485"
	stroke="#000000" stroke-width="8px"/>
<!-- Line -->
<polyline points=" 5130,1485 5405,1533"
	stroke="#000000" stroke-width="8px" stroke-linecap="round"/>
<!-- Line -->
<polyline points=" 2115,2565 2025,2565"
	stroke="#000000" stroke-width="8px"/>
<!-- Line -->
<rect x="2115" y="2520" width="270" height="90"
	stroke="#000000" stroke-width="8px"/>
<!-- Line -->
<polyline points=" 2475,2565 2385,2565"
	stroke="#000000" stroke-width="8px"/>
<!-- Line -->
<polyline points=" 5850,630 5895,675 5850,720"
	stroke="#000000" stroke-width="8px"/>
<!-- Line -->
<polyline points=" 5895,630 5940,675 5895,720"
	stroke="#000000" stroke-width="8px"/>
<!-- Line -->
<polyline points=" 5940,675 6120,675"
	stroke="#000000" stroke-width="8px"/>
<!-- Line -->
<polyline points=" 5670,675 5895,675"
	stroke="#000000" stroke-width="8px"/>
<!-- Line -->
<polyline points=" 5850,855 5895,900 5850,945"
	stroke="#000000" stroke-width="8px"/>
<!-- Line -->
<polyline points=" 5895,855 5940,900 5895,945"
	stroke="#000000" stroke-width="8px"/>
<!-- Line -->
<polyline points=" 5940,900 6120,900"
	stroke="#000000" stroke-width="8px"/>
<!-- Line -->
<polyline points=" 5670,900 5895,900"
	stroke="#000000" stroke-width="8px"/>
<!-- Line -->
<polyline points=" 5850,1080 5895,1125 5850,1170"
	stroke="#000000" stroke-width="8px"/>
<!-- Line -->
<polyline points=" 5895,1080 5940,1125 5895,1170"
	stroke="#000000" stroke-width="8px"/>
<!-- Line -->
<polyline points=" 5940,1125 6120,1125"
	stroke="#000000" stroke-width="8px"/>
<!-- Line -->
<polyline points=" 5670,1125 5895,1125"
	stroke="#000000" stroke-width="8px"/>
<!-- Line -->
<polyline points=" 5850,1305 5895,1350 5850,1395"
	stroke="#000000" stroke-width="8px"/>
<!-- Line -->
<polyline points=" 5895,1305 5940,1350 5895,1395"
	stroke="#000000" stroke-width="8px"/>
<!-- Line -->
<polyline points=" 5940,1350 6120,1350"
	stroke="#000000" stroke-width="8px"/>
<!-- Line -->
<polyline points=" 5670,1350 5895,1350"
	stroke="#000000" stroke-width="8px"/>
<!-- Line -->
<polyline points=" 5850,1530 5895,1575 5850,1620"
	stroke="#000000" stroke-width="8px"/>
<!-- Line -->
<polyline points=" 5895,1530 5940,1575 5895,1620"
	stroke="#000000" stroke-width="8px"/>
<!-- Line -->
<polyline points=" 5940,1575 6120,1575"
	stroke="#000000" stroke-width="8px"/>
<!-- Line -->
<polyline points=" 5670,1575 5895,1575"
	stroke="#000000" stroke-width="8px"/>
<!-- Line -->
<polyline points=" 5850,1755 5895,1800 5850,1845"
	stroke="#000000" stroke-width="8px"/>
<!-- Line -->
<polyline points=" 5895,1755 5940,1800 5895,1845"
	stroke="#000000" stroke-width="8px"/>
<!-- Line -->
<polyline points=" 5940,1800 6120,1800"
	stroke="#000000" stroke-width="8px"/>
<!-- Line -->
<polyline points=" 5670,1800 5895,1800"
	stroke="#000000" stroke-width="8px"/>
<!-- Line -->
<polyline points=" 8820,3870 9000,3870"
	stroke="#000000" stroke-width="30px" stroke-linecap="round"/>
<!-- Line -->
<polyline points=" 8910,3600 8910,3870"
	stroke="#000000" stroke-width="8px"/>
<!-- Line -->
<defs>
<clipPath id="cp0">
	<path clip-rule="evenodd" d="M 64,168 H 9978 V 5127 H 64 z
		M 8888,916 8933,916 8917,803 8903,803z"/>
</clipPath>
</defs>
<polyline points=" 8910,1125 8910,810" clip-path="url(#cp0)"
	stroke="#000000" stroke-width="8px"/>
<!-- Forward arrow to point 8910,810 -->
<polygon points=" 8933,916 8910,826 8888,916 8933,916"
	stroke="#000000" stroke-width="8px" stroke-miterlimit="8" fill="#000000"/>
<!-- Circle -->
<circle cx="8910" cy="3510" r="20" fill="#000000"
	stroke="#000000" stroke-width="8px"/>
<!-- Circle -->
<circle cx="8910" cy="1125" r="20" fill="#000000"
	stroke="#000000" stroke-width="8px"/>
<!-- Line -->
<polyline points=" 7695,1350 7695,1260"
	stroke="#000000" stroke-width="8px"/>
<!-- Line -->
<rect x="7650" y="1350" width="90" height="270"
	stroke="#000000" stroke-width="8px"/>
<!-- Line -->
<polyline points=" 7695,1710 7695,1620"
	stroke="#000000" stroke-width="8px"/>
<!-- Line -->
<polyline points=" 8055,1395 8100,1485 8010,1485 8055,1395" fill="#000000"
	stroke="#000000" stroke-width="8px" stroke-linejoin="round"/>
<!-- Line -->
<polyline points=" 8010,1395 8100,1395"
	stroke="#000000" stroke-width="8px"/>
<!-- Line -->
<polyline points=" 8055,1485 8055,1620"
	stroke="#000000" stroke-width="8px"/>
<!-- Line -->
<polyline points=" 8055,1395 8055,1260"
	stroke="#000000" stroke-width="8px"/>
<!-- Line -->
<polyline points=" 7515,1800 7650,1800"
	stroke="#000000" stroke-width="8px"/>
<!-- Line -->
<polyline points=" 7470,1800 7335,1800"
	stroke="#000000" stroke-width="8px"/>
<!-- Line -->
<polyline points=" 7515,1710 7515,1890"
	stroke="#000000" stroke-width="8px"/>
<!-- Line -->
<polyline points=" 7470,1710 7470,1890"
	stroke="#000000" stroke-width="8px"/>
<!-- Circle -->
<circle cx="7695" cy="1800" r="20" fill="#000000"
	stroke="#000000" stroke-width="8px"/>
<!-- Circle -->
<circle cx="8055" cy="1800" r="20" fill="#000000"
	stroke="#000000" stroke-width="8px"/>
<!-- Circle -->
<circle cx="8055" cy="1125" r="20" fill="#000000"
	stroke="#000000" stroke-width="8px"/>
<!-- Circle -->
<circle cx="7695" cy="1125" r="20" fill="#000000"
	stroke="#000000" stroke-width="8px"/>
<!-- Line -->
<defs>
<clipPath id="cp1">
	<path clip-rule="evenodd" d="M 64,168 H 9978 V 5127 H 64 z
		M 2813,286 2858,286 2842,173 2828,173z"/>
</clipPath>
</defs>
<polyline points=" 2835,495 2835,180" clip-path="url(#cp1)"
	stroke="#000000" stroke-width="8px"/>
<!-- Forward arrow to point 2835,180 -->
<polygon points=" 2858,286 2835,196 2813,286 2858,286"
	stroke="#000000" stroke-width="8px" stroke-miterlimit="8" fill="#000000"/>
<!-- Circle -->
<circle cx="2835" cy="1125" r="20" fill="#000000"
	stroke="#000000" stroke-width="8px"/>
<!-- Circle -->
<circle cx="2835" cy="2565" r="20" fill="#000000"
	stroke="#000000" stroke-width="8px"/>
<!-- Line -->
<polyline points=" 2790,2925 2880,2970 2880,2880 2790,2925" fill="#000000"
	stroke="#000000" stroke-width="8px" stroke-linejoin="round"/>
<!-- Line -->
<polyline points=" 2790,2880 2790,2970"
	stroke="#000000" stroke-width="8px"/>
<!-- Line -->
<polyline points=" 2880,2925 3015,2925"
	stroke="#000000" stroke-width="8px"/>
<!-- Line -->
<polyline points=" 2790,2925 2655,2925"
	stroke="#000000" stroke-width="8px"/>
<!-- Circle -->
<circle cx="1575" cy="2925" r="20" fill="#000000"
	stroke="#000000" stroke-width="8px"/>
<!-- Circle -->
<circle cx="1575" cy="2565" r="20" fill="#000000"
	stroke="#000000" stroke-width="8px"/>
<!-- Line -->
<polyline points=" 675,4410 855,4410"
	stroke="#000000" stroke-width="30px" stroke-linecap="round"/>
<!-- Line -->
<polyline points=" 765,4140 765,4410"
	stroke="#000000" stroke-width="8px"/>
<!-- Line -->
<polyline points=" 765,4005 765,4140"
	stroke="#000000" stroke-width="8px"/>
<!-- Line -->
<polyline points=" 765,3960 765,3825"
	stroke="#000000" stroke-width="8px"/>
<!-- Line -->
<polyline points=" 855,4005 675,4005"
	stroke="#000000" stroke-width="8px"/>
<!-- Line -->
<polyline points=" 855,3960 675,3960"
	stroke="#000000" stroke-width="8px"/>
<!-- Line -->
<defs>
<clipPath id="cp2">
	<path clip-rule="evenodd" d="M 64,168 H 9978 V 5127 H 64 z
		M 743,3661 788,3661 772,3548 758,3548z"/>
</clipPath>
</defs>
<polyline points=" 765,3870 765,3555" clip-path="url(#cp2)"
	stroke="#000000" stroke-width="8px"/>
<!-- Forward arrow to point 765,3555 -->
<polygon points=" 788,3661 765,3571 743,3661 788,3661"
	stroke="#000000" stroke-width="8px" stroke-miterlimit="8" fill="#000000"/>
<!-- Circle -->
<circle cx="2250" cy="3375" r="45"
	stroke="#000000" stroke-width="8px"/>
<!-- Line -->
<polyline points=" 2295,3375 2520,3375"
	stroke="#000000" stroke-width="8px"/>
<!-- Line -->
<polyline points=" 1845,3195 1845,3555 2205,3375 1845,3195"
	stroke="#000000" stroke-width="8px"/>
<!-- Line -->
<polyline points=" 1845,3375 1575,3375"
	stroke="#000000" stroke-width="8px"/>
<!-- Circle -->
<circle cx="3510" cy="2565" r="45"
	stroke="#000000" stroke-width="8px"/>
<!-- Line -->
<polyline points=" 3555,2565 3780,2565"
	stroke="#000000" stroke-width="8px"/>
<!-- Line -->
<polyline points=" 3105,2385 3105,2745 3465,2565 3105,2385"
	stroke="#000000" stroke-width="8px"/>
<!-- Line -->
<polyline points=" 3105,2565 2835,2565"
	stroke="#000000" stroke-width="8px"/>
<!-- Circle -->
<circle cx="5355" cy="2565" r="45"
	stroke="#000000" stroke-width="8px"/>
<!-- Line -->
<polyline points=" 5400,2565 5625,2565"
	stroke="#000000" stroke-width="8px"/>
<!-- Line -->
<polyline points=" 4950,2385 4950,2745 5310,2565 4950,2385"
	stroke="#000000" stroke-width="8px"/>
<!-- Line -->
<polyline points=" 4950,2565 4680,2565"
	stroke="#000000" stroke-width="8px"/>
<!-- Circle -->
<circle cx="4725" cy="2925" r="20" fill="#000000"
	stroke="#000000" stroke-width="8px"/>
<!-- Circle -->
<circle cx="4725" cy="2565" r="20" fill="#000000"
	stroke="#000000" stroke-width="8px"/>
<!-- Line -->
<polyline points=" 4320,2565 4230,2565"
	stroke="#000000" stroke-width="8px"/>
<!-- Line -->
<rect x="4320" y="2520" width="270" height="90"
	stroke="#000000" stroke-width="8px"/>
<!-- Line -->
<polyline points=" 4680,2565 4590,2565"
	stroke="#000000" stroke-width="8px"/>
<!-- Line -->
<polyline points=" 4275,3375 4365,3420 4365,3330 4275,3375" fill="#000000"
	stroke="#000000" stroke-width="8px" stroke-linejoin="round"/>
<!-- Line -->
<polyline points=" 4275,3330 4275,3420"
	stroke="#000000" stroke-width="8px"/>
<!-- Line -->
<polyline points=" 4365,3375 4500,3375"
	stroke="#000000" stroke-width="8px"/>
<!-- Line -->
<polyline points=" 4275,3375 4140,3375"
	stroke="#000000" stroke-width="8px"/>
<!-- Circle -->
<circle cx="3870" cy="3375" r="45"
	stroke="#000000" stroke-width="8px"/>
<!-- Line -->
<polyline points=" 3915,3375 4140,3375"
	stroke="#000000" stroke-width="8px"/>
<!-- Line -->
<polyline points=" 3465,3195 3465,3555 3825,3375 3465,3195"
	stroke="#000000" stroke-width="8px"/>
<!-- Line -->
<polyline points=" 3465,3375 3195,3375"
	stroke="#000000" stroke-width="8px"/>
<!-- Line -->
<polyline points=" 2610,3375 2520,3375"
	stroke="#000000" stroke-width="8px"/>
<!-- Line -->
<rect x="2610" y="3330" width="270" height="90"
	stroke="#000000" stroke-width="8px"/>
<!-- Line -->
<polyline points=" 2970,3375 2880,3375"
	stroke="#000000" stroke-width="8px"/>
<!-- Line -->
<defs>
<clipPath id="cp3">
	<path clip-rule="evenodd" d="M 64,168 H 9978 V 5127 H 64 z
		M 4973,3841 5018,3841 5002,3728 4988,3728z"/>
</clipPath>
</defs>
<polyline points=" 4995,4050 4995,3735" clip-path="url(#cp3)"
	stroke="#000000" stroke-width="8px"/>
<!-- Forward arrow to point 4995,3735 -->
<polygon points=" 5018,3841 4995,3751 4973,3841 5018,3841"
	stroke="#000000" stroke-width="8px" stroke-miterlimit="8" fill="#000000"/>
<!-- Line -->
<polyline points=" 6255,4410 6435,4410"
	stroke="#000000" stroke-width="30px" stroke-linecap="round"/>
<!-- Line -->
<polyline points=" 6345,4140 6345,4410"
	stroke="#000000" stroke-width="8px"/>
<!-- Line -->
<polyline points=" 3060,4410 3240,4410"
	stroke="#000000" stroke-width="30px" stroke-linecap="round"/>
<!-- Line -->
<polyline points=" 3150,4140 3150,4410"
	stroke="#000000" stroke-width="8px"/>
<!-- Line -->
<polyline points=" 3150,3960 3150,3825"
	stroke="#000000" stroke-width="8px"/>
<!-- Line -->
<polyline points=" 3150,4005 3150,4140"
	stroke="#000000" stroke-width="8px"/>
<!-- Line -->
<polyline points=" 3060,3960 3240,3960"
	stroke="#000000" stroke-width="8px"/>
<!-- Line -->
<polyline points=" 3060,4005 3240,4005"
	stroke="#000000" stroke-width="8px"/>
<!-- Circle -->
<circle cx="3150" cy="3375" r="20" fill="#000000"
	stroke="#000000" stroke-width="8px"/>
<!-- Line -->
<polyline points=" 8370,2700 7470,2700"
	stroke="#000000" stroke-width="8px"/>
<!-- Text -->
<text xml:space="preserve" x="8955" y="945" fill="#000000" font-family="Helvetica" font-style="normal" font-weight="normal" font-size="72" text-anchor="start">VCC</text>
<!-- Text -->
<text xml:space="preserve" x="2880" y="315" fill="#000000" font-family="Helvetica" font-style="normal" font-weight="normal" font-size="72" text-anchor="start">VCC</text>
<!-- Text -->
<g transform="translate(810,3510) rotate(-90)" >
<text xml:space="preserve" x="0" y="0" fill="#000000" font-family="Helvetica" font-style="normal" font-weight="normal" font-size="72" text-anchor="start">VCC</text>
</g><!-- Text -->
<text xml:space="preserve" x="2365" y="3331" fill="#000000" font-family="Helvetica" font-style="normal" font-weight="normal" font-size="72" text-anchor="start">2</text>
<!-- Text -->
<text xml:space="preserve" x="1624" y="3326" fill="#000000" font-family="Helvetica" font-style="normal" font-weight="normal" font-size="72" text-anchor="start">1</text>
<!-- Text -->
<text xml:space="preserve" x="3620" y="2526" fill="#000000" font-family="Helvetica" font-style="normal" font-weight="normal" font-size="72" text-anchor="start">8</text>
<!-- Text -->
<text xml:space="preserve" x="2861" y="2536" fill="#000000" font-family="Helvetica" font-style="normal" font-weight="normal" font-size="72" text-anchor="start">9</text>
<!-- Text -->
<text xml:space="preserve" x="4701" y="2521" fill="#000000" font-family="Helvetica" font-style="normal" font-weight="normal" font-size="72" text-anchor="start">5</text>
<!-- Text -->
<text xml:space="preserve" x="5470" y="2536" fill="#000000" font-family="Helvetica" font-style="normal" font-weight="normal" font-size="72" text-anchor="start">6</text>
<!-- Text -->
<text xml:space="preserve" x="3980" y="3316" fill="#000000" font-family="Helvetica" font-style="normal" font-weight="normal" font-size="72" text-anchor="start">4</text>
<!-- Text -->
<text xml:space="preserve" x="3244" y="3321" fill="#000000" font-family="Helvetica" font-style="normal" font-weight="normal" font-size="72" text-anchor="start">3</text>
<!-- Text -->
<text xml:space="preserve" x="5040" y="3870" fill="#000000" font-family="Helvetica" font-style="normal" font-weight="normal" font-size="72" text-anchor="start">VCC</text>
</g>
</svg>
