<?xml version="1.0" standalone="no"?>
<!-- Creator: fig2dev Version 3.2.6a -->
<!-- CreationDate: 2020-07-27 23:43:36 -->
<!-- Magnification: 1.43 -->
<svg	xmlns="http://www.w3.org/2000/svg"
	xmlns:xlink="http://www.w3.org/1999/xlink"
	width="850pt" height="527pt"
	viewBox="64 123 9914 6144">
<g fill="none">
<!-- Line -->
<polyline points=" 5670,1350 5580,1350 5580,1395 5490,1395"
	stroke="#000000" stroke-width="8px"/>
<!-- Line -->
<polyline points=" 5670,1575 5490,1575"
	stroke="#000000" stroke-width="8px"/>
<!-- Line -->
<rect x="6750" y="4590" width="3195" height="1665"
	stroke="#000000" stroke-width="8px"/>
<!-- Line -->
<polyline points=" 900,675 5715,675"
	stroke="#000000" stroke-width="8px"/>
<!-- Line -->
<polyline points=" 2250,225 1755,225 1575,225 1575,675"
	stroke="#000000" stroke-width="8px"/>
<!-- Line -->
<polyline points=" 900,900 5715,900"
	stroke="#000000" stroke-width="8px"/>
<!-- Line -->
<polyline points=" 900,1125 5715,1125"
	stroke="#000000" stroke-width="8px"/>
<!-- Line -->
<polyline points=" 3375,450 3375,1125"
	stroke="#000000" stroke-width="8px"/>
<!-- Line -->
<polyline points=" 4140,3735 4545,3735 4545,1575 2385,1575 2250,1575 900,1575"
	stroke="#000000" stroke-width="8px"/>
<!-- Line -->
<polyline points=" 4950,1485 4725,1485 4725,1350 2835,1350 2835,2565 2475,2565"
	stroke="#000000" stroke-width="8px"/>
<!-- Line -->
<polyline points=" 900,1800 5715,1800"
	stroke="#000000" stroke-width="8px"/>
<!-- Line -->
<polyline points=" 1575,2565 1575,3645 1620,3645"
	stroke="#000000" stroke-width="8px"/>
<!-- Line -->
<polyline points=" 1575,3645 1575,3870 1665,3870"
	stroke="#000000" stroke-width="8px"/>
<!-- Line -->
<polyline points=" 2070,3645 2115,3645 2115,3870 2160,3870"
	stroke="#000000" stroke-width="8px"/>
<!-- Line -->
<polyline points=" 2025,3870 2115,3870"
	stroke="#000000" stroke-width="8px"/>
<!-- Line -->
<polyline points=" 3105,3870 2610,3870"
	stroke="#000000" stroke-width="8px"/>
<!-- Line -->
<polyline points=" 4185,3195 4185,3420 3060,3420 3060,3600 3105,3600"
	stroke="#000000" stroke-width="8px"/>
<!-- Line -->
<polyline points=" 3105,3060 2835,3060"
	stroke="#000000" stroke-width="8px"/>
<!-- Line -->
<polyline points=" 2700,3870 2700,4320"
	stroke="#000000" stroke-width="8px"/>
<!-- Line -->
<polyline points=" 2025,2565 1575,2565"
	stroke="#000000" stroke-width="8px"/>
<!-- Line -->
<polyline points=" 2835,2565 2835,3060"
	stroke="#000000" stroke-width="8px"/>
<!-- Line -->
<polyline points=" 3105,3330 2250,3330"
	stroke="#000000" stroke-width="8px"/>
<!-- Line -->
<rect x="8370" y="1350" width="1125" height="1800"
	stroke="#000000" stroke-width="15px"/>
<!-- Line -->
<polyline points=" 8910,900 8910,1350"
	stroke="#000000" stroke-width="8px"/>
<!-- Line -->
<polyline points=" 8910,3150 8910,3600"
	stroke="#000000" stroke-width="8px"/>
<!-- Line -->
<polyline points=" 6120,675 9720,675 9720,3510 8910,3510"
	stroke="#000000" stroke-width="8px"/>
<!-- Line -->
<polyline points=" 7920,1800 8370,1800"
	stroke="#000000" stroke-width="8px"/>
<!-- Line -->
<polyline points=" 7695,1260 7695,1125"
	stroke="#000000" stroke-width="8px"/>
<!-- Line -->
<polyline points=" 7695,1710 7695,1800 7920,1800"
	stroke="#000000" stroke-width="8px"/>
<!-- Line -->
<polyline points=" 7470,2700 7020,2700 7020,1575 6075,1575"
	stroke="#000000" stroke-width="8px"/>
<!-- Line -->
<polyline points=" 6120,1125 8910,1125"
	stroke="#000000" stroke-width="8px"/>
<!-- Line -->
<polyline points=" 8055,1260 8055,1125"
	stroke="#000000" stroke-width="8px"/>
<!-- Line -->
<polyline points=" 8055,1620 8055,1800"
	stroke="#000000" stroke-width="8px"/>
<!-- Line -->
<polyline points=" 7335,1800 7245,1800 7245,900 6120,900"
	stroke="#000000" stroke-width="8px"/>
<!-- Line -->
<polyline points=" 7650,1800 7695,1800"
	stroke="#000000" stroke-width="8px"/>
<!-- Line -->
<rect x="6795" y="450" width="3150" height="3825"
	stroke="#000000" stroke-width="30px"/>
<!-- Line -->
<polyline points=" 900,1350 1575,1350 1575,2565"
	stroke="#000000" stroke-width="8px"/>
<!-- Text -->
<text xml:space="preserve" x="405" y="4230" fill="#000000" font-family="Times" font-style="normal" font-weight="normal" font-size="144" text-anchor="middle">100nF</text>
<!-- Text -->
<text xml:space="preserve" x="6840" y="5895" fill="#000000" font-family="Times" font-style="normal" font-weight="normal" font-size="144" text-anchor="start">Kann anstelle des HEF4093 mit</text>
<!-- Text -->
<text xml:space="preserve" x="6840" y="6120" fill="#000000" font-family="Times" font-style="normal" font-weight="normal" font-size="144" text-anchor="start">anderer Pinbelegung benutzt werden!</text>
<!-- Text -->
<text xml:space="preserve" x="495" y="720" fill="#000000" font-family="Times" font-style="normal" font-weight="normal" font-size="144" text-anchor="end">GND</text>
<!-- Text -->
<text xml:space="preserve" x="495" y="990" fill="#000000" font-family="Times" font-style="normal" font-weight="normal" font-size="144" text-anchor="end">CTS</text>
<!-- Text -->
<text xml:space="preserve" x="495" y="1215" fill="#000000" font-family="Times" font-style="normal" font-weight="normal" font-size="144" text-anchor="end">VCC</text>
<!-- Text -->
<text xml:space="preserve" x="495" y="1440" fill="#000000" font-family="Times" font-style="normal" font-weight="normal" font-size="144" text-anchor="end">TXD</text>
<!-- Text -->
<text xml:space="preserve" x="495" y="1665" fill="#000000" font-family="Times" font-style="normal" font-weight="normal" font-size="144" text-anchor="end">RXD</text>
<!-- Text -->
<text xml:space="preserve" x="495" y="1890" fill="#000000" font-family="Times" font-style="normal" font-weight="normal" font-size="144" text-anchor="end">DTR</text>
<!-- Text -->
<text xml:space="preserve" x="135" y="2205" fill="#000000" font-family="Times" font-style="normal" font-weight="normal" font-size="192" text-anchor="start">CH340</text>
<!-- Text -->
<text xml:space="preserve" x="135" y="2520" fill="#000000" font-family="Times" font-style="normal" font-weight="normal" font-size="192" text-anchor="start">oder FTDI</text>
<!-- Text -->
<text xml:space="preserve" x="1890" y="3555" fill="#000000" font-family="Times" font-style="normal" font-weight="normal" font-size="144" text-anchor="middle">18k</text>
<!-- Text -->
<text xml:space="preserve" x="2475" y="3780" fill="#000000" font-family="Times" font-style="normal" font-weight="normal" font-size="144" text-anchor="middle">1.8k</text>
<!-- Text -->
<text xml:space="preserve" x="2250" y="2430" fill="#000000" font-family="Times" font-style="normal" font-weight="normal" font-size="144" text-anchor="middle">1k</text>
<!-- Text -->
<text xml:space="preserve" x="2205" y="4680" fill="#000000" font-family="Times" font-style="normal" font-weight="normal" font-size="144" text-anchor="start">18pF</text>
<!-- Text -->
<text xml:space="preserve" x="7470" y="2070" fill="#000000" font-family="Times" font-style="normal" font-weight="normal" font-size="120" text-anchor="middle">100nF</text>
<!-- Text -->
<text xml:space="preserve" x="8460" y="1845" fill="#000000" font-family="Times" font-style="normal" font-weight="normal" font-size="120" text-anchor="start">Reset</text>
<!-- Text -->
<text xml:space="preserve" x="8415" y="2745" fill="#000000" font-family="Times" font-style="normal" font-weight="normal" font-size="120" text-anchor="start">Rx/Tx</text>
<!-- Text -->
<text xml:space="preserve" x="8415" y="2940" fill="#000000" font-family="Times" font-style="normal" font-weight="normal" font-size="120" text-anchor="start">open Collector</text>
<!-- Text -->
<text xml:space="preserve" x="8910" y="2340" fill="#000000" font-family="Times" font-style="normal" font-weight="normal" font-size="240" text-anchor="middle">AVR</text>
<!-- Text -->
<g transform="translate(7875,1620) rotate(-90)" >
<text xml:space="preserve" x="0" y="0" fill="#000000" font-family="Times" font-style="normal" font-weight="normal" font-size="120" text-anchor="start">10k</text>
</g><!-- Text -->
<text xml:space="preserve" x="7020" y="3810" fill="#000000" font-family="Times" font-style="normal" font-weight="normal" font-size="144" text-anchor="start">Bootloader</text>
<!-- Text -->
<text xml:space="preserve" x="7020" y="4110" fill="#000000" font-family="Times" font-style="normal" font-weight="normal" font-size="144" text-anchor="start">mit Ein-Pin Betrieb erforderlich!</text>
<!-- Text -->
<text xml:space="preserve" x="135" y="5445" fill="#000000" font-family="Times" font-style="normal" font-weight="normal" font-size="180" text-anchor="start">Schaltung zum Sperren des Echos von TXD nach RXD.</text>
<!-- Text -->
<text xml:space="preserve" x="1800" y="4140" fill="#000000" font-family="Times" font-style="normal" font-weight="normal" font-size="144" text-anchor="middle">BAT42</text>
<!-- Text -->
<g transform="translate(6975,5310) rotate(-90)" >
<text xml:space="preserve" x="0" y="0" fill="#000000" font-family="Helvetica" font-style="normal" font-weight="normal" font-size="96" text-anchor="start">74HC132</text>
</g><!-- Text -->
<text xml:space="preserve" x="3285" y="4095" fill="#000000" font-family="Helvetica" font-style="normal" font-weight="normal" font-size="96" text-anchor="start">HEF4093</text>
<!-- Line -->
<polyline points=" 4185,4635 3915,4635"
	stroke="#000000" stroke-width="8px"/>
<!-- Line -->
<polyline points=" 9135,4635 9135,4815"
	stroke="#000000" stroke-width="8px"/>
<!-- Text -->
<text xml:space="preserve" x="4005" y="4601" fill="#000000" font-family="Helvetica" font-style="normal" font-weight="normal" font-size="72" text-anchor="start">7</text>
<!-- Text -->
<text xml:space="preserve" x="3645" y="4635" fill="#000000" font-family="Helvetica" font-style="normal" font-weight="normal" font-size="72" text-anchor="start">Vss</text>
<!-- Text -->
<g transform="translate(9156,5047) rotate(-90)" >
<text xml:space="preserve" x="0" y="0" fill="#000000" font-family="Helvetica" font-style="normal" font-weight="normal" font-size="72" text-anchor="start">GND</text>
</g><!-- Text -->
<g transform="translate(9066,4745) rotate(-90)" >
<text xml:space="preserve" x="0" y="0" fill="#000000" font-family="Helvetica" font-style="normal" font-weight="normal" font-size="72" text-anchor="start">7</text>
</g><!-- Line -->
<polyline points=" 3330,4635 3105,4635"
	stroke="#000000" stroke-width="8px"/>
<!-- Line -->
<polyline points=" 9135,5625 9135,5400"
	stroke="#000000" stroke-width="8px"/>
<!-- Text -->
<text xml:space="preserve" x="3141" y="4601" fill="#000000" font-family="Helvetica" font-style="normal" font-weight="normal" font-size="72" text-anchor="start">14</text>
<!-- Text -->
<text xml:space="preserve" x="3375" y="4635" fill="#000000" font-family="Helvetica" font-style="normal" font-weight="normal" font-size="72" text-anchor="start">Vdd</text>
<!-- Text -->
<g transform="translate(9156,5340) rotate(-90)" >
<text xml:space="preserve" x="0" y="0" fill="#000000" font-family="Helvetica" font-style="normal" font-weight="normal" font-size="72" text-anchor="start">VCC</text>
</g><!-- Text -->
<g transform="translate(9076,5554) rotate(-90)" >
<text xml:space="preserve" x="0" y="0" fill="#000000" font-family="Helvetica" font-style="normal" font-weight="normal" font-size="72" text-anchor="start">14</text>
</g><!-- Line -->
<polyline points=" 585,630 630,675 585,720"
	stroke="#000000" stroke-width="8px"/>
<!-- Line -->
<polyline points=" 630,675 900,675"
	stroke="#000000" stroke-width="8px"/>
<!-- Line -->
<polyline points=" 585,855 630,900 585,945"
	stroke="#000000" stroke-width="8px"/>
<!-- Line -->
<polyline points=" 630,900 900,900"
	stroke="#000000" stroke-width="8px"/>
<!-- Line -->
<polyline points=" 585,1080 630,1125 585,1170"
	stroke="#000000" stroke-width="8px"/>
<!-- Line -->
<polyline points=" 630,1125 900,1125"
	stroke="#000000" stroke-width="8px"/>
<!-- Line -->
<polyline points=" 585,1305 630,1350 585,1395"
	stroke="#000000" stroke-width="8px"/>
<!-- Line -->
<polyline points=" 630,1350 900,1350"
	stroke="#000000" stroke-width="8px"/>
<!-- Line -->
<polyline points=" 585,1530 630,1575 585,1620"
	stroke="#000000" stroke-width="8px"/>
<!-- Line -->
<polyline points=" 630,1575 900,1575"
	stroke="#000000" stroke-width="8px"/>
<!-- Line -->
<polyline points=" 585,1755 630,1800 585,1845"
	stroke="#000000" stroke-width="8px"/>
<!-- Line -->
<polyline points=" 630,1800 900,1800"
	stroke="#000000" stroke-width="8px"/>
<!-- Circle -->
<circle cx="1575" cy="675" r="20" fill="#000000"
	stroke="#000000" stroke-width="8px"/>
<!-- Line -->
<polyline points=" 2160,495 2340,495"
	stroke="#000000" stroke-width="30px" stroke-linecap="round"/>
<!-- Line -->
<polyline points=" 2250,225 2250,495"
	stroke="#000000" stroke-width="8px"/>
<!-- Line -->
<defs>
<clipPath id="cp0">
	<path clip-rule="evenodd" d="M 64,123 H 9978 V 6267 H 64 z
		M 3353,241 3398,241 3382,128 3368,128z"/>
</clipPath>
</defs>
<polyline points=" 3375,450 3375,135" clip-path="url(#cp0)"
	stroke="#000000" stroke-width="8px"/>
<!-- Forward arrow to point 3375,135 -->
<polygon points=" 3398,241 3375,151 3353,241 3398,241"
	stroke="#000000" stroke-width="8px" stroke-miterlimit="8" fill="#000000"/>
<!-- Circle -->
<circle cx="3375" cy="1125" r="20" fill="#000000"
	stroke="#000000" stroke-width="8px"/>
<!-- Line -->
<polyline points=" 630,4725 810,4725"
	stroke="#000000" stroke-width="30px" stroke-linecap="round"/>
<!-- Line -->
<polyline points=" 720,4455 720,4725"
	stroke="#000000" stroke-width="8px"/>
<!-- Line -->
<polyline points=" 720,4320 720,4455"
	stroke="#000000" stroke-width="8px"/>
<!-- Line -->
<polyline points=" 720,4275 720,4140"
	stroke="#000000" stroke-width="8px"/>
<!-- Line -->
<polyline points=" 810,4320 630,4320"
	stroke="#000000" stroke-width="8px"/>
<!-- Line -->
<polyline points=" 810,4275 630,4275"
	stroke="#000000" stroke-width="8px"/>
<!-- Line -->
<defs>
<clipPath id="cp1">
	<path clip-rule="evenodd" d="M 64,123 H 9978 V 6267 H 64 z
		M 698,3976 743,3976 727,3863 713,3863z"/>
</clipPath>
</defs>
<polyline points=" 720,4185 720,3870" clip-path="url(#cp1)"
	stroke="#000000" stroke-width="8px"/>
<!-- Forward arrow to point 720,3870 -->
<polygon points=" 743,3976 720,3886 698,3976 743,3976"
	stroke="#000000" stroke-width="8px" stroke-miterlimit="8" fill="#000000"/>
<!-- Circle -->
<circle cx="5355" cy="1395" r="38"
	stroke="#000000" stroke-width="8px"/>
<!-- Circle -->
<circle cx="5355" cy="1575" r="38"
	stroke="#000000" stroke-width="8px"/>
<!-- Circle -->
<circle cx="5085" cy="1485" r="38"
	stroke="#000000" stroke-width="8px"/>
<!-- Line -->
<polyline points=" 5490,1395 5400,1395"
	stroke="#000000" stroke-width="8px"/>
<!-- Line -->
<polyline points=" 5490,1575 5400,1575"
	stroke="#000000" stroke-width="8px"/>
<!-- Line -->
<polyline points=" 5040,1485 4950,1485"
	stroke="#000000" stroke-width="8px"/>
<!-- Line -->
<polyline points=" 5130,1485 5405,1533"
	stroke="#000000" stroke-width="8px" stroke-linecap="round"/>
<!-- Line -->
<polyline points=" 2250,3870 2160,3870"
	stroke="#000000" stroke-width="8px"/>
<!-- Line -->
<rect x="2250" y="3825" width="270" height="90"
	stroke="#000000" stroke-width="8px"/>
<!-- Line -->
<polyline points=" 2610,3870 2520,3870"
	stroke="#000000" stroke-width="8px"/>
<!-- Line -->
<polyline points=" 1800,3870 1890,3915 1890,3825 1800,3870" fill="#000000"
	stroke="#000000" stroke-width="8px" stroke-linejoin="round"/>
<!-- Line -->
<polyline points=" 1800,3825 1800,3915"
	stroke="#000000" stroke-width="8px"/>
<!-- Line -->
<polyline points=" 1890,3870 2025,3870"
	stroke="#000000" stroke-width="8px"/>
<!-- Line -->
<polyline points=" 1800,3870 1665,3870"
	stroke="#000000" stroke-width="8px"/>
<!-- Line -->
<polyline points=" 1710,3645 1620,3645"
	stroke="#000000" stroke-width="8px"/>
<!-- Line -->
<rect x="1710" y="3600" width="270" height="90"
	stroke="#000000" stroke-width="8px"/>
<!-- Line -->
<polyline points=" 2070,3645 1980,3645"
	stroke="#000000" stroke-width="8px"/>
<!-- Circle -->
<circle cx="1575" cy="2565" r="20" fill="#000000"
	stroke="#000000" stroke-width="8px"/>
<!-- Circle -->
<circle cx="2115" cy="3870" r="20" fill="#000000"
	stroke="#000000" stroke-width="8px"/>
<!-- Circle -->
<circle cx="1575" cy="3645" r="20" fill="#000000"
	stroke="#000000" stroke-width="8px"/>
<!-- Circle -->
<circle cx="2700" cy="3870" r="20" fill="#000000"
	stroke="#000000" stroke-width="8px"/>
<!-- Arc -->
<path d="M 3645,3555 A 180 180 0 0 1 3645 3915"
	stroke="#000000" stroke-width="8px"/>
<!-- Circle -->
<circle cx="3870" cy="3735" r="45"
	stroke="#000000" stroke-width="8px"/>
<!-- Line -->
<polyline points=" 3375,3870 3105,3870"
	stroke="#000000" stroke-width="8px"/>
<!-- Line -->
<polyline points=" 3915,3735 4185,3735"
	stroke="#000000" stroke-width="8px"/>
<!-- Line -->
<polyline points=" 3375,3600 3105,3600"
	stroke="#000000" stroke-width="8px"/>
<!-- Line -->
<polyline points=" 3645,3915 3375,3915"
	stroke="#000000" stroke-width="8px"/>
<!-- Line -->
<polyline points=" 3375,3555 3375,3915"
	stroke="#000000" stroke-width="8px"/>
<!-- Line -->
<polyline points=" 3645,3555 3375,3555"
	stroke="#000000" stroke-width="8px"/>
<!-- Line -->
<polyline points=" 3605,3672 3605,3807 3515,3807"
	stroke="#000000" stroke-width="8px"/>
<!-- Line -->
<polyline points=" 3650,3672 3560,3672 3560,3807"
	stroke="#000000" stroke-width="8px"/>
<!-- Arc -->
<path d="M 3645,3015 A 180 180 0 0 1 3645 3375"
	stroke="#000000" stroke-width="8px"/>
<!-- Circle -->
<circle cx="3870" cy="3195" r="45"
	stroke="#000000" stroke-width="8px"/>
<!-- Line -->
<polyline points=" 3375,3330 3105,3330"
	stroke="#000000" stroke-width="8px"/>
<!-- Line -->
<polyline points=" 3915,3195 4185,3195"
	stroke="#000000" stroke-width="8px"/>
<!-- Line -->
<polyline points=" 3375,3060 3105,3060"
	stroke="#000000" stroke-width="8px"/>
<!-- Line -->
<polyline points=" 3645,3375 3375,3375"
	stroke="#000000" stroke-width="8px"/>
<!-- Line -->
<polyline points=" 3375,3015 3375,3375"
	stroke="#000000" stroke-width="8px"/>
<!-- Line -->
<polyline points=" 3645,3015 3375,3015"
	stroke="#000000" stroke-width="8px"/>
<!-- Line -->
<polyline points=" 3605,3132 3605,3267 3515,3267"
	stroke="#000000" stroke-width="8px"/>
<!-- Line -->
<polyline points=" 3650,3132 3560,3132 3560,3267"
	stroke="#000000" stroke-width="8px"/>
<!-- Line -->
<polyline points=" 4095,4905 4275,4905"
	stroke="#000000" stroke-width="30px" stroke-linecap="round"/>
<!-- Line -->
<polyline points=" 4185,4635 4185,4905"
	stroke="#000000" stroke-width="8px"/>
<!-- Line -->
<defs>
<clipPath id="cp2">
	<path clip-rule="evenodd" d="M 64,123 H 9978 V 6267 H 64 z
		M 3083,4426 3128,4426 3112,4313 3098,4313z"/>
</clipPath>
</defs>
<polyline points=" 3105,4635 3105,4320" clip-path="url(#cp2)"
	stroke="#000000" stroke-width="8px"/>
<!-- Forward arrow to point 3105,4320 -->
<polygon points=" 3128,4426 3105,4336 3083,4426 3128,4426"
	stroke="#000000" stroke-width="8px" stroke-miterlimit="8" fill="#000000"/>
<!-- Circle -->
<circle cx="2835" cy="2565" r="20" fill="#000000"
	stroke="#000000" stroke-width="8px"/>
<!-- Line -->
<polyline points=" 2610,4905 2790,4905"
	stroke="#000000" stroke-width="30px" stroke-linecap="round"/>
<!-- Line -->
<polyline points=" 2700,4635 2700,4905"
	stroke="#000000" stroke-width="8px"/>
<!-- Line -->
<polyline points=" 2700,4500 2700,4635"
	stroke="#000000" stroke-width="8px"/>
<!-- Line -->
<polyline points=" 2700,4455 2700,4320"
	stroke="#000000" stroke-width="8px"/>
<!-- Line -->
<polyline points=" 2790,4500 2610,4500"
	stroke="#000000" stroke-width="8px"/>
<!-- Line -->
<polyline points=" 2790,4455 2610,4455"
	stroke="#000000" stroke-width="8px"/>
<!-- Line -->
<polyline points=" 2115,2565 2025,2565"
	stroke="#000000" stroke-width="8px"/>
<!-- Line -->
<rect x="2115" y="2520" width="270" height="90"
	stroke="#000000" stroke-width="8px"/>
<!-- Line -->
<polyline points=" 2475,2565 2385,2565"
	stroke="#000000" stroke-width="8px"/>
<!-- Line -->
<defs>
<clipPath id="cp3">
	<path clip-rule="evenodd" d="M 64,123 H 9978 V 6267 H 64 z
		M 2228,3121 2273,3121 2257,3008 2243,3008z"/>
</clipPath>
</defs>
<polyline points=" 2250,3330 2250,3015" clip-path="url(#cp3)"
	stroke="#000000" stroke-width="8px"/>
<!-- Forward arrow to point 2250,3015 -->
<polygon points=" 2273,3121 2250,3031 2228,3121 2273,3121"
	stroke="#000000" stroke-width="8px" stroke-miterlimit="8" fill="#000000"/>
<!-- Line -->
<polyline points=" 5850,630 5895,675 5850,720"
	stroke="#000000" stroke-width="8px"/>
<!-- Line -->
<polyline points=" 5895,630 5940,675 5895,720"
	stroke="#000000" stroke-width="8px"/>
<!-- Line -->
<polyline points=" 5940,675 6120,675"
	stroke="#000000" stroke-width="8px"/>
<!-- Line -->
<polyline points=" 5670,675 5895,675"
	stroke="#000000" stroke-width="8px"/>
<!-- Line -->
<polyline points=" 5850,855 5895,900 5850,945"
	stroke="#000000" stroke-width="8px"/>
<!-- Line -->
<polyline points=" 5895,855 5940,900 5895,945"
	stroke="#000000" stroke-width="8px"/>
<!-- Line -->
<polyline points=" 5940,900 6120,900"
	stroke="#000000" stroke-width="8px"/>
<!-- Line -->
<polyline points=" 5670,900 5895,900"
	stroke="#000000" stroke-width="8px"/>
<!-- Line -->
<polyline points=" 5850,1080 5895,1125 5850,1170"
	stroke="#000000" stroke-width="8px"/>
<!-- Line -->
<polyline points=" 5895,1080 5940,1125 5895,1170"
	stroke="#000000" stroke-width="8px"/>
<!-- Line -->
<polyline points=" 5940,1125 6120,1125"
	stroke="#000000" stroke-width="8px"/>
<!-- Line -->
<polyline points=" 5670,1125 5895,1125"
	stroke="#000000" stroke-width="8px"/>
<!-- Line -->
<polyline points=" 5850,1305 5895,1350 5850,1395"
	stroke="#000000" stroke-width="8px"/>
<!-- Line -->
<polyline points=" 5895,1305 5940,1350 5895,1395"
	stroke="#000000" stroke-width="8px"/>
<!-- Line -->
<polyline points=" 5940,1350 6120,1350"
	stroke="#000000" stroke-width="8px"/>
<!-- Line -->
<polyline points=" 5670,1350 5895,1350"
	stroke="#000000" stroke-width="8px"/>
<!-- Line -->
<polyline points=" 5850,1530 5895,1575 5850,1620"
	stroke="#000000" stroke-width="8px"/>
<!-- Line -->
<polyline points=" 5895,1530 5940,1575 5895,1620"
	stroke="#000000" stroke-width="8px"/>
<!-- Line -->
<polyline points=" 5940,1575 6120,1575"
	stroke="#000000" stroke-width="8px"/>
<!-- Line -->
<polyline points=" 5670,1575 5895,1575"
	stroke="#000000" stroke-width="8px"/>
<!-- Line -->
<polyline points=" 5850,1755 5895,1800 5850,1845"
	stroke="#000000" stroke-width="8px"/>
<!-- Line -->
<polyline points=" 5895,1755 5940,1800 5895,1845"
	stroke="#000000" stroke-width="8px"/>
<!-- Line -->
<polyline points=" 5940,1800 6120,1800"
	stroke="#000000" stroke-width="8px"/>
<!-- Line -->
<polyline points=" 5670,1800 5895,1800"
	stroke="#000000" stroke-width="8px"/>
<!-- Line -->
<polyline points=" 8820,3870 9000,3870"
	stroke="#000000" stroke-width="30px" stroke-linecap="round"/>
<!-- Line -->
<polyline points=" 8910,3600 8910,3870"
	stroke="#000000" stroke-width="8px"/>
<!-- Line -->
<defs>
<clipPath id="cp4">
	<path clip-rule="evenodd" d="M 64,123 H 9978 V 6267 H 64 z
		M 8888,916 8933,916 8917,803 8903,803z"/>
</clipPath>
</defs>
<polyline points=" 8910,1125 8910,810" clip-path="url(#cp4)"
	stroke="#000000" stroke-width="8px"/>
<!-- Forward arrow to point 8910,810 -->
<polygon points=" 8933,916 8910,826 8888,916 8933,916"
	stroke="#000000" stroke-width="8px" stroke-miterlimit="8" fill="#000000"/>
<!-- Circle -->
<circle cx="8910" cy="3510" r="20" fill="#000000"
	stroke="#000000" stroke-width="8px"/>
<!-- Circle -->
<circle cx="8910" cy="1125" r="20" fill="#000000"
	stroke="#000000" stroke-width="8px"/>
<!-- Line -->
<polyline points=" 7695,1350 7695,1260"
	stroke="#000000" stroke-width="8px"/>
<!-- Line -->
<rect x="7650" y="1350" width="90" height="270"
	stroke="#000000" stroke-width="8px"/>
<!-- Line -->
<polyline points=" 7695,1710 7695,1620"
	stroke="#000000" stroke-width="8px"/>
<!-- Line -->
<polyline points=" 8055,1395 8100,1485 8010,1485 8055,1395" fill="#000000"
	stroke="#000000" stroke-width="8px" stroke-linejoin="round"/>
<!-- Line -->
<polyline points=" 8010,1395 8100,1395"
	stroke="#000000" stroke-width="8px"/>
<!-- Line -->
<polyline points=" 8055,1485 8055,1620"
	stroke="#000000" stroke-width="8px"/>
<!-- Line -->
<polyline points=" 8055,1395 8055,1260"
	stroke="#000000" stroke-width="8px"/>
<!-- Line -->
<polyline points=" 7515,1800 7650,1800"
	stroke="#000000" stroke-width="8px"/>
<!-- Line -->
<polyline points=" 7470,1800 7335,1800"
	stroke="#000000" stroke-width="8px"/>
<!-- Line -->
<polyline points=" 7515,1710 7515,1890"
	stroke="#000000" stroke-width="8px"/>
<!-- Line -->
<polyline points=" 7470,1710 7470,1890"
	stroke="#000000" stroke-width="8px"/>
<!-- Circle -->
<circle cx="7695" cy="1800" r="20" fill="#000000"
	stroke="#000000" stroke-width="8px"/>
<!-- Circle -->
<circle cx="8055" cy="1800" r="20" fill="#000000"
	stroke="#000000" stroke-width="8px"/>
<!-- Circle -->
<circle cx="8055" cy="1125" r="20" fill="#000000"
	stroke="#000000" stroke-width="8px"/>
<!-- Circle -->
<circle cx="7695" cy="1125" r="20" fill="#000000"
	stroke="#000000" stroke-width="8px"/>
<!-- Arc -->
<path d="M 7155,5085 A 180 180 0 0 1 7515 5085"
	stroke="#000000" stroke-width="8px"/>
<!-- Circle -->
<circle cx="7335" cy="4860" r="45"
	stroke="#000000" stroke-width="8px"/>
<!-- Line -->
<polyline points=" 7515,5085 7515,5355"
	stroke="#000000" stroke-width="8px"/>
<!-- Line -->
<polyline points=" 7155,5355 7515,5355"
	stroke="#000000" stroke-width="8px"/>
<!-- Line -->
<polyline points=" 7155,5085 7155,5355"
	stroke="#000000" stroke-width="8px"/>
<!-- Line -->
<polyline points=" 7335,4635 7335,4815"
	stroke="#000000" stroke-width="8px"/>
<!-- Line -->
<polyline points=" 7470,5625 7470,5355"
	stroke="#000000" stroke-width="8px"/>
<!-- Line -->
<polyline points=" 7200,5625 7200,5355"
	stroke="#000000" stroke-width="8px"/>
<!-- Arc -->
<path d="M 7605,5085 A 180 180 0 0 1 7965 5085"
	stroke="#000000" stroke-width="8px"/>
<!-- Circle -->
<circle cx="7785" cy="4860" r="45"
	stroke="#000000" stroke-width="8px"/>
<!-- Line -->
<polyline points=" 7965,5085 7965,5355"
	stroke="#000000" stroke-width="8px"/>
<!-- Line -->
<polyline points=" 7605,5355 7965,5355"
	stroke="#000000" stroke-width="8px"/>
<!-- Line -->
<polyline points=" 7605,5085 7605,5355"
	stroke="#000000" stroke-width="8px"/>
<!-- Line -->
<polyline points=" 7785,4635 7785,4815"
	stroke="#000000" stroke-width="8px"/>
<!-- Line -->
<polyline points=" 7920,5625 7920,5355"
	stroke="#000000" stroke-width="8px"/>
<!-- Line -->
<polyline points=" 7650,5625 7650,5355"
	stroke="#000000" stroke-width="8px"/>
<!-- Arc -->
<path d="M 8100,5085 A 180 180 0 0 1 8460 5085"
	stroke="#000000" stroke-width="8px"/>
<!-- Circle -->
<circle cx="8280" cy="4860" r="45"
	stroke="#000000" stroke-width="8px"/>
<!-- Line -->
<polyline points=" 8460,5085 8460,5355"
	stroke="#000000" stroke-width="8px"/>
<!-- Line -->
<polyline points=" 8100,5355 8460,5355"
	stroke="#000000" stroke-width="8px"/>
<!-- Line -->
<polyline points=" 8100,5085 8100,5355"
	stroke="#000000" stroke-width="8px"/>
<!-- Line -->
<polyline points=" 8280,4635 8280,4815"
	stroke="#000000" stroke-width="8px"/>
<!-- Line -->
<polyline points=" 8415,5625 8415,5355"
	stroke="#000000" stroke-width="8px"/>
<!-- Line -->
<polyline points=" 8145,5625 8145,5355"
	stroke="#000000" stroke-width="8px"/>
<!-- Arc -->
<path d="M 8550,5085 A 180 180 0 0 1 8910 5085"
	stroke="#000000" stroke-width="8px"/>
<!-- Circle -->
<circle cx="8730" cy="4860" r="45"
	stroke="#000000" stroke-width="8px"/>
<!-- Line -->
<polyline points=" 8910,5085 8910,5355"
	stroke="#000000" stroke-width="8px"/>
<!-- Line -->
<polyline points=" 8550,5355 8910,5355"
	stroke="#000000" stroke-width="8px"/>
<!-- Line -->
<polyline points=" 8550,5085 8550,5355"
	stroke="#000000" stroke-width="8px"/>
<!-- Line -->
<polyline points=" 8730,4635 8730,4815"
	stroke="#000000" stroke-width="8px"/>
<!-- Line -->
<polyline points=" 8865,5625 8865,5355"
	stroke="#000000" stroke-width="8px"/>
<!-- Line -->
<polyline points=" 8595,5625 8595,5355"
	stroke="#000000" stroke-width="8px"/>
<!-- Line -->
<polyline points=" 7272,5125 7272,5215 7407,5215"
	stroke="#000000" stroke-width="8px"/>
<!-- Line -->
<polyline points=" 7272,5170 7407,5170 7407,5260"
	stroke="#000000" stroke-width="8px"/>
<!-- Line -->
<polyline points=" 7722,5125 7722,5215 7857,5215"
	stroke="#000000" stroke-width="8px"/>
<!-- Line -->
<polyline points=" 7722,5170 7857,5170 7857,5260"
	stroke="#000000" stroke-width="8px"/>
<!-- Line -->
<polyline points=" 8217,5125 8217,5215 8352,5215"
	stroke="#000000" stroke-width="8px"/>
<!-- Line -->
<polyline points=" 8217,5170 8352,5170 8352,5260"
	stroke="#000000" stroke-width="8px"/>
<!-- Line -->
<polyline points=" 8667,5125 8667,5215 8802,5215"
	stroke="#000000" stroke-width="8px"/>
<!-- Line -->
<polyline points=" 8667,5170 8802,5170 8802,5260"
	stroke="#000000" stroke-width="8px"/>
<!-- Line -->
<polyline points=" 8370,2700 7470,2700"
	stroke="#000000" stroke-width="8px"/>
<!-- Text -->
<text xml:space="preserve" x="3420" y="270" fill="#000000" font-family="Helvetica" font-style="normal" font-weight="normal" font-size="72" text-anchor="start">VCC</text>
<!-- Text -->
<g transform="translate(765,3825) rotate(-90)" >
<text xml:space="preserve" x="0" y="0" fill="#000000" font-family="Helvetica" font-style="normal" font-weight="normal" font-size="72" text-anchor="start">VCC</text>
</g><!-- Text -->
<text xml:space="preserve" x="3169" y="3576" fill="#000000" font-family="Helvetica" font-style="normal" font-weight="normal" font-size="72" text-anchor="start">5</text>
<!-- Text -->
<text xml:space="preserve" x="3169" y="3816" fill="#000000" font-family="Helvetica" font-style="normal" font-weight="normal" font-size="72" text-anchor="start">6</text>
<!-- Text -->
<text xml:space="preserve" x="4005" y="3696" fill="#000000" font-family="Helvetica" font-style="normal" font-weight="normal" font-size="72" text-anchor="start">4</text>
<!-- Text -->
<text xml:space="preserve" x="3169" y="3051" fill="#000000" font-family="Helvetica" font-style="normal" font-weight="normal" font-size="72" text-anchor="start">8</text>
<!-- Text -->
<text xml:space="preserve" x="3169" y="3291" fill="#000000" font-family="Helvetica" font-style="normal" font-weight="normal" font-size="72" text-anchor="start">9</text>
<!-- Text -->
<text xml:space="preserve" x="4005" y="3151" fill="#000000" font-family="Helvetica" font-style="normal" font-weight="normal" font-size="72" text-anchor="start">10</text>
<!-- Text -->
<g transform="translate(3150,4275) rotate(-90)" >
<text xml:space="preserve" x="0" y="0" fill="#000000" font-family="Helvetica" font-style="normal" font-weight="normal" font-size="72" text-anchor="start">VCC</text>
</g><!-- Text -->
<text xml:space="preserve" x="2295" y="3150" fill="#000000" font-family="Helvetica" font-style="normal" font-weight="normal" font-size="72" text-anchor="start">VCC</text>
<!-- Text -->
<text xml:space="preserve" x="8955" y="945" fill="#000000" font-family="Helvetica" font-style="normal" font-weight="normal" font-size="72" text-anchor="start">VCC</text>
<!-- Text -->
<g transform="translate(7151,5496) rotate(-90)" >
<text xml:space="preserve" x="0" y="0" fill="#000000" font-family="Helvetica" font-style="normal" font-weight="normal" font-size="72" text-anchor="start">1</text>
</g><!-- Text -->
<g transform="translate(7436,5506) rotate(-90)" >
<text xml:space="preserve" x="0" y="0" fill="#000000" font-family="Helvetica" font-style="normal" font-weight="normal" font-size="72" text-anchor="start">2</text>
</g><!-- Text -->
<g transform="translate(7281,4745) rotate(-90)" >
<text xml:space="preserve" x="0" y="0" fill="#000000" font-family="Helvetica" font-style="normal" font-weight="normal" font-size="72" text-anchor="start">3</text>
</g><!-- Text -->
<g transform="translate(7621,5516) rotate(-90)" >
<text xml:space="preserve" x="0" y="0" fill="#000000" font-family="Helvetica" font-style="normal" font-weight="normal" font-size="72" text-anchor="start">4</text>
</g><!-- Text -->
<g transform="translate(7901,5501) rotate(-90)" >
<text xml:space="preserve" x="0" y="0" fill="#000000" font-family="Helvetica" font-style="normal" font-weight="normal" font-size="72" text-anchor="start">5</text>
</g><!-- Text -->
<g transform="translate(7736,4750) rotate(-90)" >
<text xml:space="preserve" x="0" y="0" fill="#000000" font-family="Helvetica" font-style="normal" font-weight="normal" font-size="72" text-anchor="start">6</text>
</g><!-- Text -->
<g transform="translate(8096,5501) rotate(-90)" >
<text xml:space="preserve" x="0" y="0" fill="#000000" font-family="Helvetica" font-style="normal" font-weight="normal" font-size="72" text-anchor="start">9</text>
</g><!-- Text -->
<g transform="translate(8391,5559) rotate(-90)" >
<text xml:space="preserve" x="0" y="0" fill="#000000" font-family="Helvetica" font-style="normal" font-weight="normal" font-size="72" text-anchor="start">10</text>
</g><!-- Text -->
<g transform="translate(8226,4750) rotate(-90)" >
<text xml:space="preserve" x="0" y="0" fill="#000000" font-family="Helvetica" font-style="normal" font-weight="normal" font-size="72" text-anchor="start">8</text>
</g><!-- Text -->
<g transform="translate(8571,5549) rotate(-90)" >
<text xml:space="preserve" x="0" y="0" fill="#000000" font-family="Helvetica" font-style="normal" font-weight="normal" font-size="72" text-anchor="start">12</text>
</g><!-- Text -->
<g transform="translate(8841,5549) rotate(-90)" >
<text xml:space="preserve" x="0" y="0" fill="#000000" font-family="Helvetica" font-style="normal" font-weight="normal" font-size="72" text-anchor="start">13</text>
</g><!-- Text -->
<g transform="translate(8676,4775) rotate(-90)" >
<text xml:space="preserve" x="0" y="0" fill="#000000" font-family="Helvetica" font-style="normal" font-weight="normal" font-size="72" text-anchor="start">11</text>
</g></g>
</svg>
